<svg version="1.1" xmlns="http://www.w3.org/2000/svg" viewBox="98 99 304 303" width="500px" height="500px" transform="rotate(0) scale(1, 1)">
<path d="M0 0 C0.77999625 -0.00297112 1.55999249 -0.00594224 2.36362499 -0.0090034 C4.96800851 -0.01765021 7.57234584 -0.01919525 10.17674255 -0.02069092 C12.04813738 -0.02532203 13.91953127 -0.03034708 15.79092407 -0.03573608 C20.86979172 -0.04883598 25.94864615 -0.05530062 31.02752805 -0.05974674 C34.20465283 -0.06268205 37.38177404 -0.06678778 40.55889702 -0.07125092 C50.51093579 -0.08492102 60.46296635 -0.09458942 70.41501385 -0.09845281 C81.88118841 -0.10292906 93.34724349 -0.12045894 104.81338173 -0.1494534 C113.69006802 -0.1711161 122.5667208 -0.18115957 131.44343323 -0.18249393 C136.73839316 -0.18353889 142.03324071 -0.18938059 147.32817268 -0.20731354 C152.31456526 -0.22387312 157.30076193 -0.22591165 162.28717232 -0.21717453 C164.10874967 -0.2164083 165.93033789 -0.22069173 167.75188828 -0.23063278 C188.76070746 -0.3384849 204.83540302 4.16004978 220.70188904 18.51544189 C235.78031884 35.18107483 239.7062801 52.39552395 239.57859802 74.26202393 C239.58239038 76.13474939 239.58789792 78.00747204 239.5949707 79.88018799 C239.60882112 84.9214557 239.59783023 89.96237814 239.58125949 95.00362635 C239.56730899 100.30394349 239.57388022 105.60424261 239.57739258 110.90457153 C239.58008637 119.79949443 239.56668919 128.69428174 239.54344177 137.58917236 C239.51682098 147.84520676 239.51509331 158.10101487 239.52683014 168.357072 C239.53764043 178.26213394 239.53139642 188.16711473 239.51727486 198.07217026 C239.51154487 202.27040419 239.51157403 206.46857816 239.51634026 210.6668129 C239.52114219 215.61642771 239.51087624 220.56579734 239.4893856 225.5153656 C239.48386173 227.32242379 239.48331151 229.12950576 239.48833847 230.9365654 C239.53508958 250.16560989 235.97123378 267.0970397 223.07688904 282.14044189 C210.20161405 294.36204907 195.17247418 302.29214613 177.20483398 302.28761292 C176.41823062 302.2912896 175.63162726 302.29496629 174.82118744 302.29875439 C172.18839706 302.30975709 169.5556462 302.31362932 166.9228363 302.31744385 C165.03350704 302.32371126 163.144179 302.3303583 161.25485229 302.33735657 C155.05100865 302.35837273 148.84716483 302.36875917 142.64329529 302.37872314 C140.503641 302.38277212 138.36398684 302.38688909 136.22433281 302.39107323 C126.16710541 302.41012239 116.10988532 302.42435196 106.05264336 302.4326852 C94.46531328 302.44244596 82.87817482 302.46873638 71.29091221 302.50918609 C62.32166308 302.5394155 53.35246865 302.55416068 44.38316959 302.55746621 C39.03279069 302.55980959 33.68261654 302.56867669 28.33229256 302.59392738 C23.29169915 302.61733163 18.25144352 302.62139196 13.21080971 302.611166 C11.37029644 302.61067346 9.52976585 302.61690972 7.68930435 302.63072205 C-14.16567672 302.78543584 -30.61108226 296.91774271 -46.67311096 281.70294189 C-61.20101319 266.52708159 -63.22661567 247.81127631 -63.21363831 227.81768799 C-63.21963081 225.97027314 -63.22643801 224.12286078 -63.23399353 222.27545166 C-63.25158962 217.27924758 -63.25634627 212.2831121 -63.2576251 207.28688002 C-63.25905117 204.15794769 -63.26332942 201.02903256 -63.26861954 197.90010452 C-63.2871004 186.96279045 -63.2952928 176.02552497 -63.29371643 165.0881958 C-63.29251635 154.92830267 -63.3135975 144.76862243 -63.34520376 134.60878313 C-63.37144756 125.85765067 -63.3820803 117.10658739 -63.38080561 108.35541594 C-63.38029825 103.14143286 -63.38585517 97.92763905 -63.40716171 92.71369553 C-63.42668056 87.80351431 -63.42657627 82.89370023 -63.41212845 77.98350525 C-63.41005589 76.19382306 -63.4146471 74.40411704 -63.42684937 72.61447525 C-63.55081791 53.15314092 -59.98521805 36.22895554 -46.92311096 21.14044189 C-46.33916565 20.46110596 -45.75522034 19.78177002 -45.15357971 19.08184814 C-33.31460042 6.29575051 -17.20993343 -0.02069063 0 0 Z M-26.93092346 41.46466064 C-35.22070353 52.51191985 -35.36871157 63.76821434 -35.34303284 77.06768799 C-35.35038246 78.87233502 -35.35897127 80.67697737 -35.36869812 82.48161316 C-35.3908279 87.35981231 -35.39384912 92.23784212 -35.39195061 97.11608458 C-35.39183052 101.19886465 -35.40041017 105.28160935 -35.40872812 109.36437953 C-35.42793119 119.00167195 -35.43085719 128.63887777 -35.42408752 138.27618408 C-35.41744773 148.19536923 -35.44031586 158.11418244 -35.47740126 168.03329217 C-35.50815627 176.571212 -35.51945204 185.10901253 -35.51556444 193.6469866 C-35.51350309 198.73680125 -35.51888128 203.82632627 -35.54345703 208.9160881 C-35.56581792 213.70486392 -35.56376907 218.49303722 -35.54352951 223.28181648 C-35.54013603 225.03125164 -35.54513625 226.78072812 -35.55951309 228.5301075 C-35.65582598 241.12636302 -34.27979338 251.76633824 -25.79811096 261.82794189 C-25.13553284 262.63618408 -24.47295471 263.44442627 -23.79029846 264.27716064 C-21.96712225 266.37370301 -21.96712225 266.37370301 -18.92311096 267.14044189 C-18.59311096 266.81044189 -18.26311096 266.48044189 -17.92311096 266.14044189 C-17.9417014 263.48400316 -18.02380403 260.85505599 -18.14625549 258.20269775 C-18.21568001 256.4753777 -18.283483 254.74799192 -18.34989929 253.02055359 C-18.38539005 252.09852079 -18.42088081 251.176488 -18.45744705 250.22651482 C-18.6604342 244.30811634 -18.75160345 238.38691623 -18.84875679 232.46597958 C-18.9400883 227.26871195 -19.0798207 222.08232397 -19.33229065 216.89019775 C-20.96818548 182.15027645 -20.96818548 182.15027645 -14.1676178 174.63098145 C-7.33221717 168.38409033 1.32803251 164.84451577 10.07688904 162.14044189 C10.06143329 164.92247575 10.04561188 167.7044954 10.02711487 170.48651123 C10.01771893 172.63058706 10.02808673 174.77477075 10.04930115 176.91876221 C10.02617859 177.84269775 10.00305603 178.7666333 9.97923279 179.71856689 C9.97399597 180.66119385 9.96875916 181.6038208 9.96336365 182.57501221 C9.07688904 185.14044189 9.07688904 185.14044189 2.07688904 189.14044189 C2.07688904 217.19044189 2.07688904 245.24044189 2.07688904 274.14044189 C7.35688904 274.14044189 12.63688904 274.14044189 18.07688904 274.14044189 C18.04023132 271.84977783 18.00357361 269.55911377 17.96580505 267.19903564 C17.84956606 259.61168233 17.77239717 252.02428861 17.71420383 244.4362793 C17.67774622 239.83767411 17.62833535 235.23998483 17.54881287 230.64190674 C17.47248215 226.20033841 17.43084259 221.75964821 17.41274834 217.31747437 C17.39986231 215.62696515 17.3746976 213.93650142 17.33677864 212.24636841 C17.01588785 197.34429657 17.01588785 197.34429657 21.4672699 192.23028564 C22.65003006 191.17692118 23.85159592 190.14401306 25.07688904 189.14044189 C25.88126404 188.12981689 26.68563904 187.11919189 27.51438904 186.07794189 C30.20932078 182.9886299 33.08645226 180.39693994 36.20970154 177.75372314 C38.09058989 176.18278027 38.09058989 176.18278027 39.69407654 174.43341064 C41.07688904 173.14044189 41.07688904 173.14044189 43.07688904 173.14044189 C43.07688904 206.47044189 43.07688904 239.80044189 43.07688904 274.14044189 C53.63688904 274.14044189 64.19688904 274.14044189 75.07688904 274.14044189 C75.08623474 270.04154541 75.09558044 265.94264893 75.10520935 261.71954346 C75.13893381 248.1966324 75.19425535 234.67388267 75.26079178 221.15109634 C75.3006141 212.94995034 75.3329903 204.74890074 75.34788513 196.54766846 C75.36088518 189.40009453 75.38780741 182.25273242 75.4315021 175.10527778 C75.45415432 171.32012512 75.46979749 167.53523408 75.46877289 163.75000763 C75.46802847 160.18758508 75.48589024 156.62574167 75.51805687 153.06346893 C75.53064483 151.13197344 75.52347483 149.20038091 75.51574707 147.26885986 C75.53661629 145.54412445 75.53661629 145.54412445 75.5579071 143.7845459 C75.56343786 142.28571051 75.56343786 142.28571051 75.56908035 140.75659561 C76.20989614 137.45520938 77.62472553 136.34917902 80.07688904 134.14044189 C80.07688904 133.48044189 80.07688904 132.82044189 80.07688904 132.14044189 C87.1547645 132.63396841 92.28941324 138.02470401 96.80006409 143.04452515 C103.57619421 152.12659636 102.05488492 164.31186132 101.7997272 175.10441661 C101.73332439 178.59570329 101.75329188 182.08657129 101.76342773 185.57832336 C101.76976984 192.16651386 101.70036912 198.75155631 101.60255724 205.33893448 C101.49483427 212.84814871 101.47335588 220.35687397 101.45850074 227.86675632 C101.42608605 243.2930964 101.27601643 258.71521597 101.07688904 274.14044189 C111.63688904 274.14044189 122.19688904 274.14044189 133.07688904 274.14044189 C133.40688904 228.27044189 133.73688904 182.40044189 134.07688904 135.14044189 C134.73688904 134.81044189 135.39688904 134.48044189 136.07688904 134.14044189 C136.07688904 133.48044189 136.07688904 132.82044189 136.07688904 132.14044189 C136.73688904 132.14044189 137.39688904 132.14044189 138.07688904 132.14044189 C138.07688904 131.48044189 138.07688904 130.82044189 138.07688904 130.14044189 C138.73688904 130.14044189 139.39688904 130.14044189 140.07688904 130.14044189 C140.07688904 129.48044189 140.07688904 128.82044189 140.07688904 128.14044189 C140.67501404 127.87231689 141.27313904 127.60419189 141.88938904 127.32794189 C144.07536757 126.14126783 145.49021498 125.04445077 147.07688904 123.14044189 C147.07688904 122.48044189 147.07688904 121.82044189 147.07688904 121.14044189 C147.73688904 121.14044189 148.39688904 121.14044189 149.07688904 121.14044189 C149.07688904 120.48044189 149.07688904 119.82044189 149.07688904 119.14044189 C150.39688904 118.48044189 151.71688904 117.82044189 153.07688904 117.14044189 C153.07688904 116.48044189 153.07688904 115.82044189 153.07688904 115.14044189 C153.73688904 115.14044189 154.39688904 115.14044189 155.07688904 115.14044189 C155.07688904 114.48044189 155.07688904 113.82044189 155.07688904 113.14044189 C156.06688904 113.47044189 157.05688904 113.80044189 158.07688904 114.14044189 C158.07165222 115.40227295 158.06641541 116.664104 158.0610199 117.96417236 C158.04295446 122.63441258 158.03145135 127.30464969 158.0219574 131.97491455 C158.01692072 133.99835733 158.01009115 136.02179646 158.00144958 138.04522705 C157.98935492 140.94937032 157.98365416 143.85346558 157.97923279 146.75762939 C157.9740715 147.66600555 157.96891022 148.57438171 157.96359253 149.51028442 C157.963517 150.35100494 157.96344147 151.19172546 157.96336365 152.05792236 C157.96114304 152.79960663 157.95892242 153.54129089 157.95663452 154.30545044 C157.96419431 156.23819104 157.96419431 156.23819104 159.07688904 158.14044189 C160.8007595 159.26111586 160.8007595 159.26111586 162.92845154 160.34747314 C168.52241408 163.36599748 173.9841116 166.58764157 179.45188904 169.82794189 C180.92722107 170.69902588 180.92722107 170.69902588 182.43235779 171.58770752 C189.67952012 175.87552928 189.67952012 175.87552928 193.07688904 178.14044189 C193.39281772 181.03824212 193.51425405 183.7268296 193.50926208 186.62921143 C193.52454956 187.94638153 193.52454956 187.94638153 193.54014587 189.29016113 C193.57041192 192.20125597 193.57956249 195.11202253 193.58860779 198.02325439 C193.6054444 200.03822943 193.62359324 202.05319389 193.64300537 204.06814575 C193.69062207 209.37818093 193.72035584 214.68817328 193.7464447 219.99835205 C193.77619149 225.41429101 193.8227419 230.83008218 193.86790466 236.24591064 C193.95407048 246.87734395 194.02135655 257.50880756 194.07688904 268.14044189 C197.80758987 265.70639867 200.93287957 263.58841598 203.70188904 260.07794189 C204.52559998 259.07053955 204.52559998 259.07053955 205.36595154 258.04278564 C211.43683831 247.74445489 211.65336047 237.70360161 211.59446716 226.09967041 C211.59989619 224.29487546 211.60702321 222.49008495 211.6157074 220.68530273 C211.63385219 215.81122512 211.62690959 210.9374884 211.61419106 206.06340528 C211.6040158 200.94543412 211.61346939 195.82749082 211.61973572 190.70951843 C211.62699965 182.11604612 211.61745808 173.52271161 211.59837341 164.92926025 C211.57661407 155.01747541 211.58365435 145.10601986 211.60567904 135.19424301 C211.62387712 126.66054245 211.62636964 118.12694057 211.61592436 109.59322685 C211.60971273 104.50683988 211.60878915 99.42060726 211.62207031 94.33423042 C211.6336923 89.5495895 211.62548798 84.76536973 211.60249329 79.98077393 C211.59723962 78.23296238 211.5986621 76.48511491 211.60754395 74.73731804 C211.66279614 62.75238223 211.13205592 50.80664215 203.07688904 41.14044189 C202.41688904 41.14044189 201.75688904 41.14044189 201.07688904 41.14044189 C201.07688904 40.48044189 201.07688904 39.82044189 201.07688904 39.14044189 C199.44953672 37.45071682 199.44953672 37.45071682 197.26438904 35.76544189 C196.20284607 34.88759033 196.20284607 34.88759033 195.11985779 33.99200439 C184.80820776 27.71764995 174.62458905 27.56388777 162.92845154 27.62286377 C161.11218202 27.61743488 159.29591691 27.61030793 157.47966003 27.60162354 C152.57465953 27.58347849 147.66999775 27.59042111 142.76499176 27.60313988 C137.61585623 27.61331344 132.46674844 27.60386215 127.31761169 27.59759521 C118.67286508 27.59033146 110.02825545 27.59987309 101.38352966 27.61895752 C91.40924157 27.64072377 81.43528061 27.6336715 71.46100044 27.6116519 C62.87551143 27.59346162 54.29012052 27.59095729 45.70461845 27.60140657 C40.58640562 27.60762158 35.46834622 27.60853221 30.35014343 27.59526062 C25.53677922 27.58364982 20.72383409 27.59182286 15.91051483 27.61483765 C14.15099532 27.62009691 12.39144013 27.61865902 10.63193512 27.60978699 C-4.35465297 27.54122439 -16.66274316 29.57834298 -26.93092346 41.46466064 Z M158.07688904 181.14044189 C158.07688904 211.83044189 158.07688904 242.52044189 158.07688904 274.14044189 C163.35688904 274.14044189 168.63688904 274.14044189 174.07688904 274.14044189 C174.30293575 263.16152692 174.48633536 252.18416001 174.59501076 241.20344353 C174.6471739 236.10441434 174.71790018 231.00706106 174.83128357 225.90899658 C174.94005203 220.98755611 174.99975183 216.06772563 175.02566147 211.14517593 C175.04412057 209.26868458 175.08017123 207.39228019 175.13418961 205.51647568 C175.83095155 195.39029037 175.83095155 195.39029037 171.85441589 186.62341309 C168.68406212 184.65861951 165.86040841 183.14044189 162.07688904 183.14044189 C162.07688904 182.48044189 162.07688904 181.82044189 162.07688904 181.14044189 C160.75688904 181.14044189 159.43688904 181.14044189 158.07688904 181.14044189 Z " fill="#ffffff" transform="translate(161.92311096191406,98.85955810546875)"/>
<path d="M0 0 C0.30446762 6.87932234 -0.85950263 13.04131537 -2.3125 19.75 C-4.19068592 28.70862245 -5.82117219 37.64106301 -7.01098633 46.71777344 C-7.56249433 50.7635983 -8.24321138 54.26215188 -10 58 C-11.6875 57.875 -11.6875 57.875 -14 57 C-15.18597961 55.58341325 -16.36674523 54.16135335 -17.49609375 52.69921875 C-20.22686531 49.61380154 -23.63861537 47.35213515 -27 45 C-27.45375 45.495 -27.9075 45.99 -28.375 46.5 C-30 48 -30 48 -32 48 C-32 48.66 -32 49.32 -32 50 C-32.66 50 -33.32 50 -34 50 C-34.21914063 50.54366211 -34.43828125 51.08732422 -34.6640625 51.64746094 C-36.44104915 54.77667207 -38.84104975 57.12685399 -41.375 59.640625 C-41.90013184 60.16767029 -42.42526367 60.69471558 -42.96630859 61.23773193 C-44.07338883 62.34616928 -45.1829833 63.45210046 -46.29492188 64.55566406 C-48.00106975 66.25106301 -49.69624047 67.9569161 -51.390625 69.6640625 C-52.46810892 70.74022558 -53.54621267 71.81576851 -54.625 72.890625 C-55.13337402 73.40304749 -55.64174805 73.91546997 -56.16552734 74.44342041 C-59.77005909 78 -59.77005909 78 -62 78 C-62.24927246 78.57524414 -62.49854492 79.15048828 -62.75537109 79.74316406 C-64.17873923 82.32410072 -65.81548786 84.04212237 -67.9140625 86.109375 C-69.05488281 87.24052734 -69.05488281 87.24052734 -70.21875 88.39453125 C-71.0128125 89.17183594 -71.806875 89.94914062 -72.625 90.75 C-73.42679687 91.54277344 -74.22859375 92.33554688 -75.0546875 93.15234375 C-77.03202846 95.10614493 -79.01388909 97.05512103 -81 99 C-85.00517396 97.39626852 -87.6771098 94.57886014 -90.640625 91.5546875 C-91.16767029 91.02481232 -91.69471558 90.49493713 -92.23773193 89.94900513 C-93.91325675 88.26232175 -95.58167722 86.56880436 -97.25 84.875 C-98.38755851 83.72740612 -99.52557436 82.58026539 -100.6640625 81.43359375 C-103.44803465 78.62761863 -106.2256576 75.81549536 -109 73 C-113.08649419 74.61926899 -115.80393473 77.55006066 -118.82250977 80.62719727 C-119.6793486 81.4884169 -119.6793486 81.4884169 -120.55349731 82.36703491 C-121.79049098 83.61162749 -123.02516902 84.85852491 -124.25778389 86.1074543 C-126.2075027 88.08271356 -128.16341371 90.05164539 -130.12107849 92.01902771 C-134.27383406 96.1946308 -138.4187086 100.37800338 -142.5625 104.5625 C-147.36752498 109.41468202 -152.1757026 114.26364786 -156.99238396 119.1042614 C-158.92144999 121.04631562 -160.84440636 122.99428518 -162.76722717 124.94252014 C-163.94681714 126.12937334 -165.12668779 127.31594767 -166.30688477 128.50219727 C-166.84150833 129.04715347 -167.3761319 129.59210968 -167.92695618 130.15357971 C-170.27779982 132.50509325 -171.79754371 133.93251457 -175 135 C-177.67561298 132.32438702 -176.4065046 124.94021979 -176.45996094 121.11938477 C-176.48642991 119.67698714 -176.52720334 118.23477363 -176.58300781 116.79321289 C-176.66291549 114.70381978 -176.69539662 112.61804925 -176.71875 110.52734375 C-176.74904297 109.27687256 -176.77933594 108.02640137 -176.81054688 106.73803711 C-175.64534936 101.36444096 -172.82990138 98.8130761 -169 95 C-168.11176544 94.09104477 -167.22353088 93.18208954 -166.30838013 92.24559021 C-163.11315226 88.98641413 -159.87935918 85.76666737 -156.64453125 82.546875 C-155.45320503 81.35741844 -154.26210279 80.16773751 -153.07121277 78.97784424 C-149.95640949 75.86683179 -146.8386162 72.75883324 -143.72015381 69.65148926 C-140.54664204 66.48823263 -137.37597788 63.32212457 -134.20507812 60.15625 C-128.63361843 54.5943237 -123.05969906 49.03487308 -117.48396301 43.47723389 C-115.32082902 41.31995989 -113.15956371 39.16084725 -111 37 C-106.125 39.625 -106.125 39.625 -105 43 C-102.99983534 44.20882096 -102.99983534 44.20882096 -101 45 C-101 45.66 -101 46.32 -101 47 C-100.41089844 47.26167969 -99.82179688 47.52335937 -99.21484375 47.79296875 C-96.88214566 49.0642275 -95.39645632 50.40230531 -93.5625 52.3125 C-92.95921875 52.93125 -92.3559375 53.55 -91.734375 54.1875 C-90.25976026 55.72853882 -88.78603489 57.2704286 -87.3125 58.8125 C-84.93304703 61.27494622 -84.93304703 61.27494622 -81 63 C-69.12 51.12 -57.24 39.24 -45 27 C-49.23489481 22.02500459 -49.23489481 22.02500459 -53.75 17.3125 C-55.76944439 15.23695993 -56.91895003 13.65348629 -58 11 C-54.16875512 8.6761924 -49.99173884 8.10473012 -45.6484375 7.34375 C-44.42732773 7.12205139 -44.42732773 7.12205139 -43.18154907 6.89587402 C-40.58036919 6.42480375 -37.97777833 5.96214857 -35.375 5.5 C-32.79924111 5.03699104 -30.22379857 4.57225544 -27.64840698 4.10720825 C-25.99342779 3.808674 -24.33825811 3.51119368 -22.68289185 3.21481323 C-17.72594065 2.32474783 -12.78501579 1.38322042 -7.86035156 0.32666016 C-5.22708955 -0.13571577 -2.66300088 -0.14015794 0 0 Z " fill="#658f63" transform="translate(355,144)"/>
<path d="M0 0 C0 2.64 0 5.28 0 8 C-0.33 8 -0.66 8 -1 8 C-1 6.35 -1 4.7 -1 3 C-4.71731562 4.91176232 -6.96260628 7.03898822 -9.5390625 10.3046875 C-12.3323243 13.54606616 -15.57206727 16.44229302 -19 19 C-19.66 19 -20.32 19 -21 19 C-21.66 20.65 -22.32 22.3 -23 24 C-23.66 24 -24.32 24 -25 24 C-25 24.66 -25 25.32 -25 26 C-25.66 26 -26.32 26 -27 26 C-27 26.66 -27 27.32 -27 28 C-27.78375 28.2475 -28.5675 28.495 -29.375 28.75 C-32.49823368 30.23725413 -32.63815232 30.93584271 -34 34 C-37.08420856 38.05353126 -40.3378952 41.19989603 -44.25 44.4375 C-46.00025 46.00022321 -47.44953352 47.62606255 -48.9375 49.4375 C-51.73572165 52.83911176 -54.88049065 55.61405038 -58.265625 58.421875 C-60.22768174 60.0792468 -60.22768174 60.0792468 -62 63 C-62.66 63 -63.32 63 -64 63 C-64.66 64.32 -65.32 65.64 -66 67 C-66.66 67 -67.32 67 -68 67 C-68 67.66 -68 68.32 -68 69 C-69.57421875 70.55078125 -69.57421875 70.55078125 -71.6875 72.3125 C-74.17934547 74.42505572 -76.59912338 76.53077874 -78.875 78.875 C-81 81 -81 81 -83 82 C-83 81.34 -83 80.68 -83 80 C-83.8353125 79.690625 -83.8353125 79.690625 -84.6875 79.375 C-87.26083139 77.84491107 -88.73050355 75.99204548 -90.5625 73.65625 C-92.6716724 71.22611659 -95.12916709 69.29200393 -97.64453125 67.296875 C-98.09183594 66.86890625 -98.53914063 66.4409375 -99 66 C-99 65.34 -99 64.68 -99 64 C-100.485 63.505 -100.485 63.505 -102 63 C-104.6875 60.5625 -104.6875 60.5625 -107 58 C-107 57.34 -107 56.68 -107 56 C-108.32 55.67 -109.64 55.34 -111 55 C-111 50.71 -111 46.42 -111 42 C-112.32 42.66 -113.64 43.32 -115 44 C-115.99 44 -116.98 44 -118 44 C-115.61042731 40.75700849 -113.7952131 38.49097658 -110 37 C-108.2925002 38.28062485 -106.62626404 39.61767557 -105 41 C-105 41.66 -105 42.32 -105 43 C-103.68 43.66 -102.36 44.32 -101 45 C-101 45.66 -101 46.32 -101 47 C-100.41089844 47.26167969 -99.82179687 47.52335937 -99.21484375 47.79296875 C-96.88214566 49.0642275 -95.39645632 50.40230531 -93.5625 52.3125 C-92.95921875 52.93125 -92.3559375 53.55 -91.734375 54.1875 C-90.25976026 55.72853882 -88.78603489 57.2704286 -87.3125 58.8125 C-84.93304703 61.27494622 -84.93304703 61.27494622 -81 63 C-69.12 51.12 -57.24 39.24 -45 27 C-49.23489481 22.02500459 -49.23489481 22.02500459 -53.75 17.3125 C-55.76944439 15.23695993 -56.91895003 13.65348629 -58 11 C-54.16875512 8.6761924 -49.99173884 8.10473012 -45.6484375 7.34375 C-44.83436432 7.19595093 -44.02029114 7.04815186 -43.18154907 6.89587402 C-40.58036919 6.42480375 -37.97777833 5.96214857 -35.375 5.5 C-32.79924111 5.03699104 -30.22379857 4.57225544 -27.64840698 4.10720825 C-25.99342779 3.808674 -24.33825811 3.51119368 -22.68289185 3.21481323 C-17.72594065 2.32474783 -12.78501579 1.38322042 -7.86035156 0.32666016 C-5.22708955 -0.13571577 -2.66300088 -0.14015794 0 0 Z " fill="#81ab7a" transform="translate(355,144)"/>
<path d="M0 0 C0.99 0.495 0.99 0.495 2 1 C2.825 0.814375 3.65 0.62875 4.5 0.4375 C5.325 0.293125 6.15 0.14875 7 0 C9 2 9 2 9 5 C-54.36 4.67 -117.72 4.34 -183 4 C-183 3.34 -183 2.68 -183 2 C-122.61 2 -62.22 2 0 2 C0 1.34 0 0.68 0 0 Z " fill="#ffffff" transform="translate(340,123)"/>
<path d="M0 0 C0 63.69 0 127.38 0 193 C-0.66 193 -1.32 193 -2 193 C-5 189.53846154 -5 189.53846154 -5 187 C-4.34 187 -3.68 187 -3 187 C-3.01187867 185.59083124 -3.01187867 185.59083124 -3.02399731 184.15319443 C-3.21585432 161.3110935 -3.39035756 138.46891047 -3.54658794 115.62653732 C-3.62254249 104.58020883 -3.70416808 93.53397625 -3.79907227 82.48779297 C-3.88176117 72.86171823 -3.95388305 63.23563276 -4.01323253 53.60938478 C-4.04503884 48.51074619 -4.08219268 43.41227132 -4.13199425 38.31377411 C-4.17868018 33.51716876 -4.21126106 28.72067653 -4.2329216 23.92389488 C-4.24338566 22.16139784 -4.25904854 20.39892299 -4.28024101 18.63652229 C-4.30836474 16.23365764 -4.31793329 13.83141355 -4.32279968 11.42840576 C-4.33542916 10.72801359 -4.34805863 10.02762142 -4.36107081 9.30600524 C-4.34980182 6.38471022 -4.20001977 0 0 0 Z " fill="#ffffff" transform="translate(128,152)"/>
<path d="M0 0 C0.99 0.495 0.99 0.495 2 1 C2.20055121 24.39987783 2.38387013 47.7998355 2.54658794 71.20000839 C2.62254126 82.06473576 2.70416606 92.92936561 2.79907227 103.79394531 C2.88176329 113.26180588 2.95388466 122.72967735 3.01323253 132.19771409 C3.04503779 137.21251737 3.08219049 142.22715415 3.13199425 147.24181366 C3.17868298 151.95962418 3.21126223 156.67731965 3.2329216 161.39530945 C3.24338497 163.12878113 3.25904712 164.86223025 3.28024101 166.59560394 C3.3083684 168.95905968 3.31793368 171.32188452 3.32279968 173.68548584 C3.33542916 174.37420517 3.34805863 175.06292449 3.36107081 175.7725141 C3.34340164 180.27878547 2.89193816 181.14408246 0 185 C0 123.95 0 62.9 0 0 Z " fill="#ffffff" transform="translate(373,160)"/>
<path d="M0 0 C0.33 0 0.66 0 1 0 C1.89209575 6.10938493 2.14830685 12.03867765 2.14526367 18.20800781 C2.14862228 19.19761505 2.1519809 20.18722229 2.15544128 21.20681763 C2.16488826 24.45559974 2.1668907 27.70433004 2.16796875 30.953125 C2.17118377 33.21897401 2.17454803 35.48482281 2.17805481 37.75067139 C2.18402902 42.4880827 2.18589627 47.22547581 2.18530273 51.96289062 C2.18520077 58.03815031 2.19889595 64.11329403 2.21607494 70.18852615 C2.22717707 74.86216776 2.22922256 79.53578106 2.22869301 84.20943451 C2.22987417 86.45016635 2.23430353 88.69089889 2.24202538 90.93161774 C2.25179664 94.05768579 2.24895939 97.18349835 2.24291992 100.30957031 C2.24853943 101.23639618 2.25415894 102.16322205 2.25994873 103.11813354 C2.25575424 103.97031464 2.25155975 104.82249573 2.24723816 105.70050049 C2.24778293 106.43860584 2.24832769 107.1767112 2.24888897 107.93718338 C1.95902102 110.33963784 1.26134558 111.94376238 0 114 C-3.40019338 115.51157594 -7.0840548 115.02299784 -10.734375 114.87890625 C-12.02988281 114.83056641 -13.32539063 114.78222656 -14.66015625 114.73242188 C-16.02344263 114.67590496 -17.38672383 114.61926274 -18.75 114.5625 C-20.12888612 114.50924178 -21.50779235 114.45650166 -22.88671875 114.40429688 C-26.25804533 114.27463047 -29.62907518 114.13966346 -33 114 C-33.33 113.34 -33.66 112.68 -34 112 C-23.11 112 -12.22 112 -1 112 C-1.00523682 108.82036621 -1.01047363 105.64073242 -1.01586914 102.36474609 C-1.03243864 91.85944134 -1.04348472 81.354136 -1.05181217 70.84882164 C-1.05703082 64.47944828 -1.06411006 58.11008831 -1.07543945 51.74072266 C-1.08630441 45.59399916 -1.09228451 39.44728854 -1.09487724 33.30055618 C-1.09672497 30.95541811 -1.10033308 28.61028075 -1.10573006 26.26514816 C-1.11298831 22.98062364 -1.11398891 19.69615235 -1.11352539 16.41162109 C-1.11712067 15.44201447 -1.12071594 14.47240784 -1.12442017 13.47341919 C-1.11738295 8.86536007 -0.95116059 4.53340516 0 0 Z " fill="#ffffff" transform="translate(238,261)"/>
<path d="M0 0 C0.04254356 1.99954746 0.04080783 4.00041636 0 6 C-0.33 6.33 -0.66 6.66 -1 7 C-1.10941558 9.29060241 -1.14693778 11.58463646 -1.15821838 13.87782288 C-1.16315636 14.60554962 -1.16809434 15.33327637 -1.17318195 16.08305544 C-1.18863165 18.53982425 -1.19693766 20.99656678 -1.20532227 23.45336914 C-1.21489493 25.20719131 -1.22490464 26.96101113 -1.23532104 28.71482849 C-1.2624425 33.49146155 -1.28341273 38.26810456 -1.30332303 43.04477239 C-1.32513809 48.03096042 -1.35254862 53.01711753 -1.37937927 58.00328064 C-1.42936694 67.45221052 -1.47428316 76.90115751 -1.51740164 86.35012096 C-1.56672221 97.1044944 -1.62165949 107.85883682 -1.67708123 118.61318028 C-1.79099449 140.7420913 -1.89781307 162.87103193 -2 185 C-2.33 185 -2.66 185 -3 185 C-3.20055007 161.46973766 -3.38386915 137.93939593 -3.54658794 114.40884018 C-3.62254168 103.48357911 -3.70416674 92.55841502 -3.79907227 81.63330078 C-3.88176257 72.11270216 -3.95388412 62.59209268 -4.01323253 53.07131886 C-4.04503814 48.02857049 -4.08219123 42.98598768 -4.13199425 37.94338226 C-4.17868203 33.1993068 -4.21126183 28.45534573 -4.2329216 23.711092 C-4.24338521 21.96794519 -4.2590476 20.22482084 -4.28024101 18.48177147 C-4.30836717 16.10517944 -4.31793355 13.72921482 -4.32279968 11.35247803 C-4.33542916 10.65986775 -4.34805863 9.96725748 -4.36107081 9.25365901 C-4.34971076 6.34054626 -4.17649847 0 0 0 Z " fill="#ffffff" transform="translate(128,152)"/>
<path d="M0 0 C0.66 0.33 1.32 0.66 2 1 C2 3.97 2 6.94 2 10 C2.99 9.67 3.98 9.34 5 9 C5.875 11.6875 5.875 11.6875 6 15 C4.20703368 17.13500912 2.32163572 18.38906909 0 20 C-0.66 19.67 -1.32 19.34 -2 19 C-2.02687279 17.18757948 -2.04633715 15.37504767 -2.0625 13.5625 C-2.07410156 12.55316406 -2.08570313 11.54382813 -2.09765625 10.50390625 C-2 8 -2 8 -1 7 C-0.63239269 4.67182036 -0.29758419 2.3381615 0 0 Z " fill="#62845e" transform="translate(181,259)"/>
<path d="M0 0 C10.89 0 21.78 0 33 0 C29.86387346 3.13612654 26.33122231 2.99028066 22.02392578 3.02172852 C21.0079834 2.97459717 19.99204102 2.92746582 18.9453125 2.87890625 C17.83671875 2.83056641 16.728125 2.78222656 15.5859375 2.73242188 C13.87277344 2.64831055 13.87277344 2.64831055 12.125 2.5625 C10.9596875 2.51029297 9.794375 2.45808594 8.59375 2.40429688 C5.72886075 2.27514203 2.86436653 2.14019818 0 2 C0 1.34 0 0.68 0 0 Z " fill="#ff" transform="translate(263,373)"/>
<path d="M0 0 C0.99 0.33 1.98 0.66 3 1 C2.67 5.62 2.34 10.24 2 15 C-0.4294516 11.3558226 -0.16179575 9.28758728 0 5 C-0.99 5 -1.98 5 -3 5 C-3.33 6.98 -3.66 8.96 -4 11 C-4.99 10.67 -5.98 10.34 -7 10 C-7.66 10.66 -8.32 11.32 -9 12 C-9.66 11.34 -10.32 10.68 -11 10 C-10.45730469 9.52949219 -9.91460937 9.05898438 -9.35546875 8.57421875 C-8.64003906 7.95160156 -7.92460937 7.32898438 -7.1875 6.6875 C-6.47980469 6.07261719 -5.77210938 5.45773437 -5.04296875 4.82421875 C-3.29863261 3.26665665 -1.63221959 1.67341125 0 0 Z " fill="#ffffff" transform="translate(203,271)"/>
<path d="M0 0 C0.33 1.32 0.66 2.64 1 4 C-1.31 4.66 -3.62 5.32 -6 6 C-6.33 7.32 -6.66 8.64 -7 10 C-7.66 10 -8.32 10 -9 10 C-9.66 11.32 -10.32 12.64 -11 14 C-11.66 14 -12.32 14 -13 14 C-13.103125 14.639375 -13.20625 15.27875 -13.3125 15.9375 C-13.539375 16.618125 -13.76625 17.29875 -14 18 C-14.99 18.33 -15.98 18.66 -17 19 C-15.60305639 14.80165873 -13.62717931 12.16409471 -10.625 8.9375 C-9.85414062 8.10089844 -9.08328125 7.26429687 -8.2890625 6.40234375 C-7.53367187 5.60957031 -6.77828125 4.81679687 -6 4 C-5.28585938 3.23816406 -4.57171875 2.47632812 -3.8359375 1.69140625 C-2 0 -2 0 0 0 Z " fill="#ffffff" transform="translate(125,112)"/>
<path d="M0 0 C0 2.64 0 5.28 0 8 C-0.33 8 -0.66 8 -1 8 C-1 6.35 -1 4.7 -1 3 C-4.057952 4.73559438 -6.63379989 6.38472619 -9 9 C-9.66 7.68 -10.32 6.36 -11 5 C-10.67 4.67 -10.34 4.34 -10 4 C-10.66 3.67 -11.32 3.34 -12 3 C-12 2.34 -12 1.68 -12 1 C-7.93631321 0.22596442 -4.13574827 -0.0984702 0 0 Z " fill="#7aa573" transform="translate(355,144)"/>
<path d="M0 0 C0.33 0 0.66 0 1 0 C1.66 8.58 2.32 17.16 3 26 C2.34 26.33 1.68 26.66 1 27 C0.34 26.67 -0.32 26.34 -1 26 C-1.02886751 21.85418113 -1.04675327 17.70838784 -1.0625 13.5625 C-1.07087891 12.37849609 -1.07925781 11.19449219 -1.08789062 9.97460938 C-1.09111328 8.84990234 -1.09433594 7.72519531 -1.09765625 6.56640625 C-1.10289307 5.52427979 -1.10812988 4.48215332 -1.11352539 3.40844727 C-1 1 -1 1 0 0 Z " fill="#ffffff" transform="translate(180,344)"/>
<path d="M0 0 C2.125 0.9375 2.125 0.9375 4 2 C4 2.33 4 2.66 4 3 C5.65 3.33 7.3 3.66 9 4 C8 6 8 6 6 8 C5.01 7.34 4.02 6.68 3 6 C3 5.34 3 4.68 3 4 C1.68 4 0.36 4 -1 4 C-0.835 5.051875 -0.67 6.10375 -0.5 7.1875 C0.25711395 13.10578512 0.08169679 19.04521179 0 25 C-0.33 25 -0.66 25 -1 25 C-1.79681084 16.97497656 -2.12867289 9.06350113 -2 1 C-1.34 0.67 -0.68 0.34 0 0 Z " fill="#ffffff" transform="translate(321,276)"/>
<path d="M0 0 C4.875 2.625 4.875 2.625 6 6 C6.99 6.33 7.98 6.66 9 7 C5 8 5 8 1 9 C0.67 7.68 0.34 6.36 0 5 C-0.598125 5.33 -1.19625 5.66 -1.8125 6 C-4 7 -4 7 -7 7 C-4.78071806 4.09197539 -3.07030857 2.04687238 0 0 Z " fill="#93b18f" transform="translate(244,181)"/>
<path d="M0 0 C0.625 1.875 0.625 1.875 1 4 C0.34 4.66 -0.32 5.32 -1 6 C-1.66 5.67 -2.32 5.34 -3 5 C-3.33 7.64 -3.66 10.28 -4 13 C-5.65 13 -7.3 13 -9 13 C-9.33 12.01 -9.66 11.02 -10 10 C-9.67 9.34 -9.34 8.68 -9 8 C-8.34 8 -7.68 8 -7 8 C-7 7.34 -7 6.68 -7 6 C-6.34 6 -5.68 6 -5 6 C-5 5.34 -5 4.68 -5 4 C-3.37373596 2.61767557 -1.7074998 1.28062485 0 0 Z " fill="#ffffff" transform="translate(307,223)"/>
<path d="M0 0 C0.33 0.99 0.66 1.98 1 3 C-3.29 7.29 -7.58 11.58 -12 16 C-12.66 15.01 -13.32 14.02 -14 13 C-12.8803014 11.99406757 -11.7540588 10.9954151 -10.625 10 C-9.99851562 9.443125 -9.37203125 8.88625 -8.7265625 8.3125 C-7 7 -7 7 -5 7 C-5.33 5.02 -5.66 3.04 -6 1 C-5.38125 1.20625 -4.7625 1.4125 -4.125 1.625 C-3.073125 1.810625 -3.073125 1.810625 -2 2 C-1.34 1.34 -0.68 0.68 0 0 Z " fill="#6b876a" transform="translate(320,193)"/>
<path d="M0 0 C-0.99 1.32 -1.98 2.64 -3 4 C-1.68 5.32 -0.36 6.64 1 8 C0.67 8.99 0.34 9.98 0 11 C-1.13199353 10.0919838 -2.25532363 9.17316174 -3.375 8.25 C-4.00148438 7.73953125 -4.62796875 7.2290625 -5.2734375 6.703125 C-7.08312318 4.91800519 -8.00117455 3.32050356 -9 1 C-5.64919071 -1.10976881 -3.77897651 -1.0497157 0 0 Z " fill="#90ad8e" transform="translate(306,154)"/>
<path d="M0 0 C0.99 0 1.98 0 3 0 C2.814375 1.2375 2.62875 2.475 2.4375 3.75 C2.05288777 6.76279577 1.9125406 9.10010827 3 12 C1.35 12 -0.3 12 -2 12 C-2.33 12.66 -2.66 13.32 -3 14 C-3.99 14 -4.98 14 -6 14 C-5.38125 12.989375 -4.7625 11.97875 -4.125 10.9375 C-2.07056045 7.36772915 -0.97730425 3.990659 0 0 Z " fill="#ffffff" transform="translate(372,343)"/>
<path d="M0 0 C0.99 0.33 1.98 0.66 3 1 C2.67 1.66 2.34 2.32 2 3 C1.01 3 0.02 3 -1 3 C-1.12375 3.94875 -1.2475 4.8975 -1.375 5.875 C-2 9 -2 9 -4 11 C-7 12 -7 12 -11 11 C-7.37 7.37 -3.74 3.74 0 0 Z " fill="#7a9977" transform="translate(218,207)"/>
<path d="M0 0 C0.66 0 1.32 0 2 0 C2.6875 2.3125 2.6875 2.3125 3 5 C1.6875 6.4375 1.6875 6.4375 0 8 C-1.20049407 11.10007201 -1.20049407 11.10007201 -2 14 C-2.66 13.67 -3.32 13.34 -4 13 C-3.71517632 11.58194169 -3.42181856 10.16559621 -3.125 8.75 C-2.96257812 7.96109375 -2.80015625 7.1721875 -2.6328125 6.359375 C-2.00849925 4.03168856 -1.15161458 2.10968048 0 0 Z " fill="#ffffff" transform="translate(105,135)"/>
<path d="M0 0 C0.33 0.66 0.66 1.32 1 2 C-2.75 6.875 -2.75 6.875 -5 8 C-5.7425 9.2375 -5.7425 9.2375 -6.5 10.5 C-8 13 -8 13 -10 14 C-10.66 13.34 -11.32 12.68 -12 12 C-8.04 8.04 -4.08 4.08 0 0 Z " fill="#99b795" transform="translate(303,178)"/>
<path d="M0 0 C1.32 0.33 2.64 0.66 4 1 C3.67 2.98 3.34 4.96 3 7 C2.34 6.67 1.68 6.34 1 6 C-1.42476332 6.46930903 -3.65230452 7.21743484 -6 8 C-6 6 -6 6 -4.125 3.875 C-2 2 -2 2 0 2 C0 1.34 0 0.68 0 0 Z " fill="#ffffff" transform="translate(317,212)"/>
<path d="M0 0 C0.66 0 1.32 0 2 0 C0.46356148 3.68069887 -1.78150945 5.98775204 -4.625 8.75 C-5.85089844 9.94882813 -5.85089844 9.94882813 -7.1015625 11.171875 C-7.72804687 11.77515625 -8.35453125 12.3784375 -9 13 C-9.33 12.01 -9.66 11.02 -10 10 C-9.38125 9.773125 -8.7625 9.54625 -8.125 9.3125 C-5.76128418 8.14688017 -5.76128418 8.14688017 -5 5.4375 C-4.67 4.633125 -4.34 3.82875 -4 3 C-1.875 2.1875 -1.875 2.1875 0 2 C0 1.34 0 0.68 0 0 Z " fill="#759071" transform="translate(213,244)"/>
<path d="M0 0 C-0.33 0.66 -0.66 1.32 -1 2 C-1.99 1.67 -2.98 1.34 -4 1 C-5.91916276 1.60825137 -5.91916276 1.60825137 -7.875 2.5625 C-10.95541131 3.82421828 -11.65520386 4.09338229 -15 3.1875 C-15.66 2.795625 -16.32 2.40375 -17 2 C-17 1.67 -17 1.34 -17 1 C-5.47835991 -1.48063781 -5.47835991 -1.48063781 0 0 Z " fill="#97b28e" transform="translate(335,149)"/>
<path d="M0 0 C7.74152536 -0.39363688 14.52058632 1.05789567 22 3 C22 3.33 22 3.66 22 4 C14.37404682 4.45755719 7.3970146 2.74536299 0 1 C0 0.67 0 0.34 0 0 Z " fill="#ffffff" transform="translate(337,99)"/>
<path d="M0 0 C2 3 2 3 1.87890625 5.046875 C0.71185789 7.6403158 -0.49539387 8.10906394 -3.0625 9.25 C-3.79597656 9.58515625 -4.52945313 9.9203125 -5.28515625 10.265625 C-6.13400391 10.62914062 -6.13400391 10.62914062 -7 11 C-7.33 9.68 -7.66 8.36 -8 7 C-7.21625 6.855625 -6.4325 6.71125 -5.625 6.5625 C-3.03578982 6.12201075 -3.03578982 6.12201075 -1 5 C-0.34444881 2.47266765 -0.34444881 2.47266765 0 0 Z " fill="#ffffff" transform="translate(170,278)"/>
<path d="M0 0 C0.64453125 1.83984375 0.64453125 1.83984375 1 4 C-1.3125 6.5625 -1.3125 6.5625 -4 9 C-4.66 9.99 -5.32 10.98 -6 12 C-6.71484375 10.265625 -6.71484375 10.265625 -7 8 C-5.56640625 5.859375 -5.56640625 5.859375 -3.5625 3.75 C-2.57443359 2.69039062 -2.57443359 2.69039062 -1.56640625 1.609375 C-1.04949219 1.07828125 -0.53257812 0.5471875 0 0 Z " fill="#819e7c" transform="translate(186,239)"/>
<path d="M0 0 C0.33 0 0.66 0 1 0 C1 2.64 1 5.28 1 8 C1.99 8 2.98 8 4 8 C3.47731534 10.76276177 2.89130413 13.3260876 2 16 C1.34 16 0.68 16 0 16 C0 10.72 0 5.44 0 0 Z " fill="#ffffff" transform="translate(99,166)"/>
<path d="M0 0 C11.52164009 -0.18451025 11.52164009 -0.18451025 17 1 C17 1.33 17 1.66 17 2 C15.35 2 13.7 2 12 2 C11.67 2.66 11.34 3.32 11 4 C9.35 4 7.7 4 6 4 C5.67 3.34 5.34 2.68 5 2 C2.47266765 1.34444881 2.47266765 1.34444881 0 1 C0 0.67 0 0.34 0 0 Z " fill="#ffffffr" transform="translate(154,99)"/>
<path d="M0 0 C0.66 0.33 1.32 0.66 2 1 C2.625 4.0625 2.625 4.0625 3 7 C1.02 7.99 1.02 7.99 -1 9 C-1 8.34 -1 7.68 -1 7 C-1.66 6.67 -2.32 6.34 -3 6 C-3 4.68 -3 3.36 -3 2 C-2.34 2 -1.68 2 -1 2 C-0.67 1.34 -0.34 0.68 0 0 Z " fill="#5d855a" transform="translate(195,256)"/>
<path d="M0 0 C1.65 0.33 3.3 0.66 5 1 C3.50902342 4.7952131 1.24299151 6.61042731 -2 9 C-1.34 6.03 -0.68 3.06 0 0 Z " fill="#ffffff" transform="translate(219,234)"/>
<path d="M0 0 C0.33 0.66 0.66 1.32 1 2 C1.66 2.33 2.32 2.66 3 3 C2.34 3 1.68 3 1 3 C1 3.66 1 4.32 1 5 C0.34 5 -0.32 5 -1 5 C-1.66 6.32 -2.32 7.64 -3 9 C-3.66 9 -4.32 9 -5 9 C-5.33 8.01 -5.66 7.02 -6 6 C-4.02 4.02 -2.04 2.04 0 0 Z " fill="#ffffff" transform="translate(227,198)"/>
<path d="M0 0 C1.98 0 3.96 0 6 0 C6.33 1.65 6.66 3.3 7 5 C5.35 5.66 3.7 6.32 2 7 C1.855625 6.401875 1.71125 5.80375 1.5625 5.1875 C1.1127561 3.43849596 0.57107659 1.71322977 0 0 Z " fill="#ffffff" transform="translate(360,105)"/>
<path d="M0 0 C2.31 1.98 4.62 3.96 7 6 C6.67 7.32 6.34 8.64 6 10 C5.236875 9.195625 4.47375 8.39125 3.6875 7.5625 C1.20569102 4.83200976 1.20569102 4.83200976 -2 4 C-2 3.34 -2 2.68 -2 2 C-1.34 2 -0.68 2 0 2 C0 1.34 0 0.68 0 0 Z " fill="#ffffff" transform="translate(256,241)"/>
<path d="M0 0 C0.66 0.33 1.32 0.66 2 1 C3.67654729 0.72057545 5.34608154 0.39171753 7 0 C7 0.99 7 1.98 7 3 C7.66 3 8.32 3 9 3 C9 3.66 9 4.32 9 5 C7.5608866 4.71640113 6.12374482 4.42278601 4.6875 4.125 C3.88699219 3.96257812 3.08648437 3.80015625 2.26171875 3.6328125 C0 3 0 3 -3 1 C-2.01 0.67 -1.02 0.34 0 0 Z " fill="#ffffff" transform="translate(139,394)"/>
<path d="M0 0 C0.33 0 0.66 0 1 0 C1.33 3.3 1.66 6.6 2 10 C1.01 10.495 1.01 10.495 0 11 C-0.66 10.67 -1.32 10.34 -2 10 C-2.25 3.375 -2.25 3.375 0 0 Z " fill="#ffffff" transform="translate(181,360)"/>
<path d="M0 0 C0 2.64 0 5.28 0 8 C-0.33 8 -0.66 8 -1 8 C-1 6.35 -1 4.7 -1 3 C-4.63 2.67 -8.26 2.34 -12 2 C-12 1.67 -12 1.34 -12 1 C-7.93631321 0.22596442 -4.13574827 -0.0984702 0 0 Z " fill="#9db89e" transform="translate(355,144)"/>
<path d="M0 0 C2.31 0 4.62 0 7 0 C7 0.66 7 1.32 7 2 C7.66 2 8.32 2 9 2 C8.67 2.66 8.34 3.32 8 4 C5.03 3.67 2.06 3.34 -1 3 C-0.67 2.01 -0.34 1.02 0 0 Z " fill="#ffffff" transform="translate(218,99)"/>
<path d="M0 0 C0.66 0 1.32 0 2 0 C1.67 6.6 1.34 13.2 1 20 C0.67 20 0.34 20 0 20 C-0.19594676 16.85463232 -0.3803401 13.70869386 -0.5625 10.5625 C-0.61857422 9.66466797 -0.67464844 8.76683594 -0.73242188 7.84179688 C-0.78076172 6.98779297 -0.82910156 6.13378906 -0.87890625 5.25390625 C-0.9260376 4.46314697 -0.97316895 3.6723877 -1.02172852 2.85766602 C-1 1 -1 1 0 0 Z " fill="#ffffff" transform="translate(354,277)"/>
<path d="M0 0 C-0.33 0.99 -0.66 1.98 -1 3 C-1.66 3 -2.32 3 -3 3 C-3 3.66 -3 4.32 -3 5 C-4.98 5.33 -6.96 5.66 -9 6 C-4.5 0 -4.5 0 0 0 Z " fill="#7a9877" transform="translate(201,228)"/>
<path d="M0 0 C0.33 0.99 0.66 1.98 1 3 C-2.01031744 3.93423645 -2.86650268 4.04449911 -6 3 C-6.99 3.495 -6.99 3.495 -8 4 C-8 3.34 -8 2.68 -8 2 C-8.66 1.67 -9.32 1.34 -10 1 C-6.59437148 0.22157062 -3.49234244 -0.09978121 0 0 Z " fill="#ffffff" transform="translate(292,99)"/>
<path d="M0 0 C4.95 0 9.9 0 15 0 C15 0.33 15 0.66 15 1 C13.25215171 1.36463732 11.50159498 1.7163078 9.75 2.0625 C8.28820312 2.35833984 8.28820312 2.35833984 6.796875 2.66015625 C4.131881 2.98397535 2.51128277 2.85503199 0 2 C0 1.34 0 0.68 0 0 Z " fill="#ffffff" transform="translate(225,99)"/>
<path d="M0 0 C2.27477677 3.53854164 1.99082706 5.70947373 1.125 9.75 C0.92132813 10.73484375 0.71765625 11.7196875 0.5078125 12.734375 C0.34023438 13.48203125 0.17265625 14.2296875 0 15 C-0.66 15 -1.32 15 -2 15 C-2.625 13.125 -2.625 13.125 -3 11 C-2.34 10.34 -1.68 9.68 -1 9 C-0.53993654 6.79749008 -0.53993654 6.79749008 -0.375 4.375 C-0.30023438 3.55773437 -0.22546875 2.74046875 -0.1484375 1.8984375 C-0.09945313 1.27195313 -0.05046875 0.64546875 0 0 Z " fill="#789a79" transform="translate(352,151)"/>
<path d="M0 0 C0.33 0 0.66 0 1 0 C1.33 2.64 1.66 5.28 2 8 C2.66 7.67 3.32 7.34 4 7 C4.66 7.66 5.32 8.32 6 9 C3.525 10.485 3.525 10.485 1 12 C0 11 0 11 -0.09765625 8.49609375 C-0.08605469 7.48675781 -0.07445312 6.47742188 -0.0625 5.4375 C-0.05347656 4.42558594 -0.04445312 3.41367187 -0.03515625 2.37109375 C-0.02355469 1.58863281 -0.01195312 0.80617188 0 0 Z " fill="#a7c4a4" transform="translate(179,267)"/>
<path d="M0 0 C0.99 0.33 1.98 0.66 3 1 C1.02 3.31 -0.96 5.62 -3 8 C-3.66 7.01 -4.32 6.02 -5 5 C-3.35 3.35 -1.7 1.7 0 0 Z " fill="#8ba389" transform="translate(311,201)"/>
<path d="M0 0 C0.66 0.33 1.32 0.66 2 1 C1.38125 1.0825 0.7625 1.165 0.125 1.25 C-2.18437567 1.81258459 -2.18437567 1.81258459 -3.25 4.0625 C-3.4975 4.701875 -3.745 5.34125 -4 6 C-6.15634036 6 -7.92446352 5.5534764 -10 5 C-8.38007835 4.13624104 -6.75388139 3.28424146 -5.125 2.4375 C-4.22007812 1.96183594 -3.31515625 1.48617187 -2.3828125 0.99609375 C-1.20332031 0.50302734 -1.20332031 0.50302734 0 0 Z " fill="#ffffff" transform="translate(139,103)"/>
<path d="M0 0 C3.68754757 0.49831724 5.60490662 1.10067643 8 4 C7.67 4.99 7.34 5.98 7 7 C5.83040013 6.02433888 4.66438823 5.044375 3.5 4.0625 C2.8503125 3.51722656 2.200625 2.97195312 1.53125 2.41015625 C1.0259375 1.94480469 0.520625 1.47945312 0 1 C0 0.67 0 0.34 0 0 Z " fill="#a4bf9f" transform="translate(299,158)"/>
<path d="M0 0 C0.66 0 1.32 0 2 0 C2.33 2.31 2.66 4.62 3 7 C0.525 6.01 0.525 6.01 -2 5 C-1.34 3.35 -0.68 1.7 0 0 Z " fill="#ffffff" transform="translate(362,132)"/>
<path d="M0 0 C1.65 0 3.3 0 5 0 C5.33 1.32 5.66 2.64 6 4 C4.1875 4.625 4.1875 4.625 2 5 C1.01 4.34 0.02 3.68 -1 3 C-0.67 2.01 -0.34 1.02 0 0 Z " fill="#ffffff" transform="translate(151,124)"/>
<path d="M0 0 C0.33 1.32 0.66 2.64 1 4 C-3.625 6.125 -3.625 6.125 -7 5 C-2.25 0 -2.25 0 0 0 Z " fill="#ffffff" transform="translate(125,112)"/>
<path d="M0 0 C-1.28519565 2.86697492 -2.57129254 4.97607712 -5 7 C-5.66 7 -6.32 7 -7 7 C-6.61402985 4.20171644 -6.19863427 3.1794116 -4.0625 1.25 C-2 0 -2 0 0 0 Z " fill="#ffffff" transform="translate(382,381)"/>
<path d="M0 0 C0.66 0.33 1.32 0.66 2 1 C1.67 3.31 1.34 5.62 1 8 C0.34 8 -0.32 8 -1 8 C-1.625 5.6875 -1.625 5.6875 -2 3 C-1.34 2.01 -0.68 1.02 0 0 Z " fill="#ffffff" transform="translate(395,356)"/>
<path d="M0 0 C0.99 0 1.98 0 3 0 C2.1875 1.9375 2.1875 1.9375 1 4 C0.01 4.33 -0.98 4.66 -2 5 C-2.33 5.99 -2.66 6.98 -3 8 C-3.33 7.01 -3.66 6.02 -4 5 C-2.25 2.3125 -2.25 2.3125 0 0 Z " fill="#779776" transform="translate(295,217)"/>
<path d="M0 0 C3.375 -0.125 3.375 -0.125 7 0 C7.66 0.66 8.32 1.32 9 2 C8.01 2.66 7.02 3.32 6 4 C4.02 3.01 2.04 2.02 0 1 C0 0.67 0 0.34 0 0 Z " fill="#ffffff" transform="translate(337,100)"/>
<path d="M0 0 C3.96 0 7.92 0 12 0 C6.88275349 2.55862325 5.57740723 3.09123185 0 2 C0 1.34 0 0.68 0 0 Z " fill="#ffffff" transform="translate(183,99)"/>
<path d="M0 0 C-1.39332574 3.36720387 -2.9789286 4.9859524 -6 7 C-5.6875 4.625 -5.6875 4.625 -5 2 C-2 0 -2 0 0 0 Z " fill="#7d977a" transform="translate(193,266)"/>
<path d="M0 0 C0.99 0.33 1.98 0.66 3 1 C3 1.66 3 2.32 3 3 C2.34 3 1.68 3 1 3 C1 3.99 1 4.98 1 6 C-0.32 6.33 -1.64 6.66 -3 7 C-3 4 -3 4 -1 2 C-0.67 1.34 -0.34 0.68 0 0 Z " fill="#ffffff" transform="translate(253,240)"/>
<path d="M0 0 C-0.33 0.99 -0.66 1.98 -1 3 C-5.455 2.01 -5.455 2.01 -10 1 C-5.64467851 -1.17766075 -4.53374042 -1.03039555 0 0 Z " fill="#ffffff" transform="translate(201,100)"/>
<path d="M0 0 C0 0.33 0 0.66 0 1 C-8.57142857 2.42857143 -8.57142857 2.42857143 -12 0 C-7.91556885 -1.53166168 -4.20544343 -0.63081652 0 0 Z " fill="#ffffff" transform="translate(352,399)"/>
<path d="M0 0 C0.33 0 0.66 0 1 0 C1 2.97 1 5.94 1 9 C1.66 9.33 2.32 9.66 3 10 C1.02 10.99 1.02 10.99 -1 12 C-0.67 8.04 -0.34 4.08 0 0 Z " fill="#ffffff" transform="translate(145,358)"/>
<path d="M0 0 C0.33 0.99 0.66 1.98 1 3 C1.99 2.67 2.98 2.34 4 2 C4 3.98 4 5.96 4 8 C2.66666667 8 1.33333333 8 0 8 C0 5.36 0 2.72 0 0 Z " fill="#ffffff" transform="translate(144,347)"/>
<path d="M0 0 C0.66 0.99 1.32 1.98 2 3 C1.34 4.32 0.68 5.64 0 7 C-1.32 6.67 -2.64 6.34 -4 6 C-2.68 4.02 -1.36 2.04 0 0 Z " fill="#ffffff" transform="translate(242,231)"/>
<path d="M0 0 C3.7952131 1.49097658 5.61042731 3.75700849 8 7 C6.35 6.67 4.7 6.34 3 6 C2.67 4.68 2.34 3.36 2 2 C1.34 2 0.68 2 0 2 C0 1.34 0 0.68 0 0 Z " fill="#ffffff" transform="translate(244,230)"/>
<path d="M0 0 C0.99 0.33 1.98 0.66 3 1 C2.67 2.32 2.34 3.64 2 5 C0.33333333 5 -1.33333333 5 -3 5 C-2.67 4.01 -2.34 3.02 -2 2 C-1.34 2 -0.68 2 0 2 C0 1.34 0 0.68 0 0 Z " fill="#ffffff" transform="translate(126,345)"/>
<path d="M0 0 C0.66 0 1.32 0 2 0 C2 0.99 2 1.98 2 3 C2.99 3 3.98 3 5 3 C5 3.66 5 4.32 5 5 C1.62537285 4.45276317 -0.08235 3.9451 -3 2 C-2.01 2 -1.02 2 0 2 C0 1.34 0 0.68 0 0 Z " fill="#ffffff" transform="translate(333,283)"/>
<path d="M0 0 C0.33 0.99 0.66 1.98 1 3 C-1 5 -1 5 -4.125 5.125 C-5.548125 5.063125 -5.548125 5.063125 -7 5 C-2.25 1.125 -2.25 1.125 0 0 Z " fill="#ffffff" transform="translate(169,262)"/>
<path d="M0 0 C0.66 0.66 1.32 1.32 2 2 C1.8125 4 1.8125 4 1 6 C0.01 6.66 -0.98 7.32 -2 8 C-2.33 7.01 -2.66 6.02 -3 5 C-2.34 5 -1.68 5 -1 5 C-0.67 3.35 -0.34 1.7 0 0 Z " fill="#6c8b69" transform="translate(289,221)"/>
<path d="M0 0 C3.16115776 1.36983503 3.9927092 1.9890638 6 5 C4.68 5.33 3.36 5.66 2 6 C1.34 4.02 0.68 2.04 0 0 Z " fill="#ffffff" transform="translate(375,112)"/>
<path d="M0 0 C0.33 0 0.66 0 1 0 C1 1.65 1 3.3 1 5 C-0.98 5.33 -2.96 5.66 -5 6 C-3.35830472 3.97945196 -1.69088222 1.97956942 0 0 Z " fill="#96b692" transform="translate(285,196)"/>
<path d="M0 0 C0.99 0.33 1.98 0.66 3 1 C3.625 3.875 3.625 3.875 4 7 C3.34 7.66 2.68 8.32 2 9 C1.34 6.03 0.68 3.06 0 0 Z " fill="#ffffff" transform="translate(369,146)"/>
<path d="M0 0 C2.97 0.33 5.94 0.66 9 1 C6 3 6 3 2.8125 2.625 C1.884375 2.41875 0.95625 2.2125 0 2 C0 1.34 0 0.68 0 0 Z " fill="#ffffff" transform="translate(324,99)"/>
</svg>